<svg width="30" height="30" viewBox="0 0 30 30" fill="none" xmlns="http://www.w3.org/2000/svg">
<g clip-path="url(#clip0)">
<path d="M4.47495 26.495H22.2987L21.4475 23.7387L23.4837 25.4862L25.35 27.1587L28.75 30V3.09375C28.665 1.42125 27.225 0 25.44 0L4.4812 0.00375C2.69745 0.00375 1.24995 1.4275 1.24995 3.1V23.4C1.24995 25.1637 2.69495 26.495 4.47495 26.495ZM17.66 7.10375L17.6187 7.11875L17.6337 7.10375H17.66ZM8.12121 8.69C10.4125 7.0225 12.5362 7.1025 12.5362 7.1025L12.7075 7.27125C9.90371 7.94 8.63245 9.1925 8.63245 9.1925C8.63245 9.1925 8.97246 9.02625 9.56621 8.7725C13.3425 7.2875 17.4662 7.395 21.2837 9.275C21.2837 9.275 20.01 8.10375 17.3787 7.35375L17.6112 7.125C17.975 7.12625 19.9 7.19375 21.96 8.7C21.96 8.7 24.265 12.6375 24.265 17.475C24.1887 17.3825 22.835 19.5575 19.3512 19.6325C19.3512 19.6325 18.7612 18.965 18.3412 18.3825C20.3787 17.7975 21.1412 16.6275 21.1412 16.6275C20.4725 17.0487 19.8625 17.2987 19.3675 17.5487C18.6062 17.8837 17.8437 18.0487 17.0825 18.2175C13.4775 18.8025 11.4537 17.8237 9.5412 17.0475L8.88745 16.715C8.88745 16.715 9.64871 17.885 11.605 18.47C11.0912 19.0562 10.5825 19.7225 10.5825 19.7225C7.09995 19.64 5.82995 17.465 5.82995 17.465C5.82995 12.62 8.12121 8.69 8.12121 8.69Z" fill="#22241F"/>
<path d="M17.885 15.9638C18.7738 15.9638 19.4975 15.2138 19.4975 14.2888C19.4975 13.37 18.7775 12.62 17.885 12.62V12.6237C17 12.6237 16.275 13.3712 16.2725 14.2963C16.2725 15.2138 16.9963 15.9638 17.885 15.9638Z" fill="#22241F"/>
<path d="M12.1125 15.9638C13.0013 15.9638 13.725 15.2138 13.725 14.2888C13.725 13.37 13.0063 12.62 12.1175 12.62L12.1125 12.6237C11.2238 12.6237 10.5 13.3712 10.5 14.2963C10.5 15.2138 11.2238 15.9638 12.1125 15.9638Z" fill="#22241F"/>
</g>
<defs>
<clipPath id="clip0">
<rect width="30" height="30" fill="white"/>
</clipPath>
</defs>
</svg>
