<svg width="30" height="30" viewBox="0 0 30 30" fill="none" xmlns="http://www.w3.org/2000/svg">
<path d="M13.5 20.5L13 28.5L6.5 29.5L2 28.5L1 25.5V3L3 1.00001C10.3333 0.666677 25.5 0.20001 27.5 1.00001C29.5 1.80001 29.6667 8.66668 29.5 12C29.6667 14.8333 29.9 21.5 29.5 25.5C29.1 29.5 22 29.8333 18.5 29.5L18 20.5H23L24 15H21.5C20.3 15 19 14.3333 18.5 14V12L24 11.5V6.00001H18L14 8.50001L13 15H10V20.5H13.5Z" fill="#22241F"/>
<path d="M4.39453 30H14.1797V19.3359H10.6641V15.8203H14.1797V11.4258C14.1797 9.00261 16.151 7.03125 18.5742 7.03125H22.9688V10.5469H19.4531C18.4838 10.5469 17.6953 11.3354 17.6953 12.3047V15.8203H22.8101L22.2242 19.3359H17.6953V30H25.6055C28.0286 30 30 28.0286 30 25.6055V4.39453C30 1.97136 28.0286 0 25.6055 0H4.39453C1.97136 0 0 1.97136 0 4.39453V25.6055C0 28.0286 1.97136 30 4.39453 30ZM1.75781 4.39453C1.75781 2.94067 2.94067 1.75781 4.39453 1.75781H25.6055C27.0593 1.75781 28.2422 2.94067 28.2422 4.39453V25.6055C28.2422 27.0593 27.0593 28.2422 25.6055 28.2422H19.4531V21.0938H23.7133L24.8852 14.0625H19.4531V12.3047H24.7266V5.27344H18.5742C15.1817 5.27344 12.4219 8.03329 12.4219 11.4258V14.0625H8.90625V21.0938H12.4219V28.2422H4.39453C2.94067 28.2422 1.75781 27.0593 1.75781 25.6055V4.39453Z" fill="#22241F"/>
</svg>
