<svg width="30" height="30" viewBox="0 0 30 30" fill="none" xmlns="http://www.w3.org/2000/svg">
<g clip-path="url(#clip0)">
<path d="M29.8051 5.72551C29.562 5.42339 29.1493 5.31627 28.79 5.46207C28.7328 5.48518 28.6762 5.50784 28.6202 5.53004C28.8461 5.14072 29.0312 4.72736 29.1775 4.2879C29.2876 3.95648 29.1912 3.59142 28.9319 3.35773C28.6728 3.12381 28.2997 3.06567 27.9816 3.20941C27.9775 3.21124 27.9559 3.22131 27.9193 3.23962C26.5254 3.93886 25.4385 4.34901 24.9443 4.44537C24.9098 4.41516 24.8731 4.38289 24.8416 4.35474C24.2295 3.81229 22.956 2.69534 20.3818 2.69534C18.9806 2.69534 16.9753 3.24535 15.5499 4.82166C14.4254 6.06563 13.8651 7.69458 13.8781 9.67509C9.75892 9.17064 6.38108 7.31578 3.57659 4.02492C3.38158 3.79604 3.08289 3.68297 2.78488 3.72485C2.48711 3.76674 2.23145 3.95831 2.10716 4.23228C1.72745 5.06999 1.23077 6.36134 1.29944 7.89783C1.34476 8.90605 1.62514 9.86003 2.13692 10.752C1.61324 10.7254 1.18042 11.1619 1.21521 11.6879C1.36078 13.887 2.16805 15.5894 3.62305 16.7771C3.34633 16.9991 3.23029 17.3655 3.32825 17.7061C3.78601 19.2945 5.12566 21.0203 7.17324 21.8475C5.32273 22.7809 3.20603 23.1727 0.950165 22.9869C0.544128 22.9537 0.167617 23.2041 0.0419611 23.592C-0.0836951 23.98 0.0740046 24.4034 0.42305 24.6147C3.34564 26.3842 6.51429 27.2811 9.84086 27.2811C17.0044 27.2811 21.1602 23.7234 23.3849 20.739C26.1297 17.0568 27.1036 12.7378 27.1036 10.158C27.1036 9.81998 27.0935 9.75131 27.1038 9.65587C27.4455 9.35443 28.3888 8.8985 29.8451 6.77333C30.0646 6.45358 30.0482 6.02763 29.8051 5.72551ZM25.343 9.87926C25.3444 9.94014 25.346 10.0216 25.346 10.158C25.346 12.4688 24.4632 16.3511 21.9757 19.6884C19.9913 22.3503 16.2754 25.5236 9.84109 25.5236C7.97455 25.5236 6.16158 25.2095 4.42139 24.587C6.4605 24.2313 8.34031 23.411 9.97178 22.1514C10.2627 21.9269 10.3833 21.5451 10.2739 21.1945C10.1647 20.8436 9.84887 20.5978 9.48197 20.5781C7.72713 20.484 6.34217 19.5211 5.57083 18.3792C5.87319 18.3598 6.23322 18.3122 6.76926 18.2179C7.16866 18.1476 7.46804 17.8132 7.4939 17.4083C7.51976 17.0037 7.26548 16.6338 6.87821 16.5132C4.86359 15.8858 3.66585 14.7414 3.18886 12.9584C3.5038 13.0392 3.88123 13.1024 4.50585 13.1806C4.89197 13.2294 5.2639 13.0179 5.42023 12.6613C5.57633 12.3049 5.47951 11.8882 5.18219 11.6371C2.93961 9.74399 2.82173 7.81245 3.23464 6.25377C6.3234 9.39517 10.1249 11.2059 14.7508 11.5233C15.2951 11.5606 15.7398 11.0983 15.6854 10.5583C15.489 8.60896 15.882 7.07568 16.8538 6.00085C17.8945 4.84981 19.4047 4.44148 20.3818 4.44148C22.2893 4.44148 23.1236 5.18077 23.6756 5.67012C23.9977 5.95554 24.3016 6.22516 24.7603 6.22516C25.0812 6.22516 25.4962 6.13406 25.9551 5.98827C25.7923 6.12628 25.6184 6.25926 25.4328 6.38744C25.1064 6.61311 24.9718 7.02945 25.1041 7.40344C25.2364 7.77744 25.6026 8.01662 25.9986 7.98686C26.1505 7.97542 26.3041 7.95963 26.4591 7.93925C25.85 8.40182 25.319 8.68358 25.343 9.87926Z" fill="#22241F"/>
<path d="M2.5 11.5L8 13.5L7 16L3 15L2.5 11.5Z" fill="#22241F"/>
<path d="M25 5H26.5L27 7H28L26.5 8.5V11L24.5 17L19 23.5L11.5 26.5L4.5 25.5L3.5 24L7.5 22.5L7 20.5L5 18L4 16L3 12C3.66666 12.6667 4.6 13.3 3 10.5C1.4 7.7 2.33333 5.66667 3 5L7.5 8.5L14.5 10.5L15.5 6L20.5 3.5L25 5Z" fill="#22241F"/>
</g>
<defs>
<clipPath id="clip0">
<rect width="30" height="30" fill="white"/>
</clipPath>
</defs>
</svg>
